<svg width="38" height="11" viewBox="0 0 38 11" fill="none" xmlns="http://www.w3.org/2000/svg">
<path opacity="0.2" d="M6.75 10.5C5.75544 10.5 4.80161 10.1049 4.09835 9.40165C3.39509 8.69839 3 7.74456 3 6.75C3 5.75544 3.39509 4.80161 4.09835 4.09835C4.80161 3.39509 5.75544 3 6.75 3H34.25C35.2446 3 36.1984 3.39509 36.9016 4.09835C37.6049 4.80161 38 5.75544 38 6.75C38 7.74456 37.6049 8.69839 36.9016 9.40165C36.1984 10.1049 35.2446 10.5 34.25 10.5H6.75Z" fill="white"/>
<path d="M25.5 3.625C25.5 2.7962 25.8292 2.00134 26.4153 1.41529C27.0013 0.82924 27.7962 0.5 28.625 0.5C29.4538 0.5 30.2487 0.82924 30.8347 1.41529C31.4208 2.00134 31.75 2.7962 31.75 3.625C31.75 4.4538 31.4208 5.24866 30.8347 5.83471C30.2487 6.42076 29.4538 6.75 28.625 6.75C27.7962 6.75 27.0013 6.42076 26.4153 5.83471C25.8292 5.24866 25.5 4.4538 25.5 3.625ZM13 3.625C13 2.7962 13.3292 2.00134 13.9153 1.41529C14.5013 0.82924 15.2962 0.5 16.125 0.5C16.9538 0.5 17.7487 0.82924 18.3347 1.41529C18.9208 2.00134 19.25 2.7962 19.25 3.625C19.25 4.4538 18.9208 5.24866 18.3347 5.83471C17.7487 6.42076 16.9538 6.75 16.125 6.75C15.2962 6.75 14.5013 6.42076 13.9153 5.83471C13.3292 5.24866 13 4.4538 13 3.625ZM0.5 3.625C0.5 2.7962 0.82924 2.00134 1.41529 1.41529C2.00134 0.82924 2.7962 0.5 3.625 0.5C4.4538 0.5 5.24866 0.82924 5.83471 1.41529C6.42076 2.00134 6.75 2.7962 6.75 3.625C6.75 4.4538 6.42076 5.24866 5.83471 5.83471C5.24866 6.42076 4.4538 6.75 3.625 6.75C2.7962 6.75 2.00134 6.42076 1.41529 5.83471C0.82924 5.24866 0.5 4.4538 0.5 3.625Z" fill="white"/>
</svg>
